<?xml version="1.0" standalone="no"?>
<!DOCTYPE svg PUBLIC "-//W3C//DTD SVG 20010904//EN"
 "http://www.w3.org/TR/2001/REC-SVG-20010904/DTD/svg10.dtd">
<svg version="1.0" xmlns="http://www.w3.org/2000/svg"
 width="1619.000000pt" height="1619.000000pt" viewBox="0 0 1619.000000 1619.000000"
 preserveAspectRatio="xMidYMid meet">
<metadata>
Created by potrace 1.11, written by Peter Selinger 2001-2013
</metadata>
<g transform="translate(0.000000,1619.000000) scale(0.100000,-0.100000)"
fill="#000000" stroke="none">
<path d="M9275 16183 c-27 -2 -1155 -5 -2505 -7 -2424 -4 -2972 -8 -3077 -21
-56 -7 -107 -27 -96 -38 3 -4 -1 -7 -10 -7 -8 0 -43 -28 -76 -62 -44 -46 -65
-77 -77 -113 -8 -27 -19 -57 -23 -65 -4 -8 -8 -247 -9 -530 -1 -283 -4 -532
-8 -552 -3 -20 -12 -42 -19 -48 -16 -13 -12 -85 7 -107 9 -12 13 -60 15 -177
1 -139 -1 -167 -18 -203 -22 -48 -24 -75 -7 -106 16 -30 21 -83 22 -227 1
-106 -2 -130 -17 -154 -18 -27 -19 -74 -1 -119 13 -35 11 -300 -3 -328 -13
-29 -12 -177 3 -200 8 -14 8 -1154 -1 -1979 -3 -256 -7 -838 -10 -1295 -8
-1419 -15 -2466 -20 -3080 -3 -324 -7 -1155 -10 -1845 -3 -690 -8 -1433 -10
-1650 -8 -674 -9 -2072 -1 -2125 9 -64 22 -107 53 -173 14 -29 23 -55 20 -59
-3 -3 1 -12 9 -20 8 -8 12 -19 9 -24 -4 -5 -2 -9 2 -9 5 0 24 -25 43 -56 35
-58 130 -160 190 -206 19 -14 46 -35 59 -47 13 -11 28 -21 33 -21 5 0 35 -15
67 -33 66 -39 194 -79 297 -92 16 -2 43 -9 59 -15 17 -7 57 -16 90 -20 33 -4
74 -14 90 -21 17 -7 44 -14 60 -16 17 -2 41 -8 55 -13 14 -6 41 -12 60 -15 63
-9 144 -23 170 -29 14 -4 40 -7 58 -7 17 -1 32 -4 32 -8 0 -3 27 -8 61 -9 33
-2 88 -12 121 -23 33 -10 81 -19 107 -19 25 0 62 -5 81 -10 19 -6 57 -11 83
-11 26 0 76 -9 110 -20 36 -12 89 -20 126 -20 35 0 96 -9 136 -20 40 -11 97
-21 127 -24 55 -4 180 -19 303 -36 39 -5 138 -12 220 -15 83 -3 157 -8 165
-11 29 -12 45 -14 102 -13 31 0 68 -4 82 -10 14 -5 128 -10 253 -10 203 -1
232 1 263 17 30 16 57 18 185 17 83 -1 164 -6 180 -12 32 -10 102 -6 120 6 15
11 394 7 435 -5 40 -12 192 -10 230 2 13 4 105 8 205 9 99 1 186 6 194 10 18
12 461 14 521 4 25 -5 59 -11 75 -14 17 -2 45 -12 63 -20 27 -13 62 -14 205
-9 323 10 427 17 427 27 0 4 60 9 133 11 72 3 159 10 192 16 110 19 180 28
188 24 4 -2 7 0 7 5 0 11 59 21 200 32 58 5 132 14 165 20 33 6 96 15 140 20
95 11 183 25 245 40 52 13 129 26 215 38 33 4 65 11 71 14 5 4 43 8 82 9 40 1
75 6 78 11 3 4 18 8 34 8 16 0 39 4 53 9 13 5 44 10 68 12 24 1 49 6 54 9 6 4
39 12 75 19 127 23 215 45 250 60 19 8 38 14 42 13 3 -1 12 5 18 13 7 8 19 15
27 15 8 0 41 18 74 40 33 22 63 40 65 40 10 0 174 164 174 174 0 6 13 26 29
45 32 38 111 190 111 215 0 9 5 16 12 16 6 0 9 2 6 6 -3 3 1 26 9 52 12 37 16
123 19 387 8 601 13 2974 17 7375 l4 4295 22 47 c16 34 20 59 17 97 -2 28 -7
54 -10 59 -22 37 -21 296 2 339 15 28 15 118 0 146 -6 12 -13 36 -14 52 -4 37
-8 57 -15 70 -4 9 -3 163 1 175 1 3 2 8 1 13 0 4 3 7 8 7 13 0 30 56 32 105 2
22 -5 56 -14 75 -10 20 -17 47 -16 60 0 14 0 66 0 115 -2 93 3 136 19 165 14
27 16 113 2 118 -7 2 -10 7 -7 12 3 4 -2 25 -11 46 -15 34 -17 104 -18 569 -2
350 -6 539 -13 555 -6 14 -11 27 -11 30 -5 45 -131 190 -166 190 -9 0 -16 5
-16 10 0 6 -8 10 -18 10 -10 0 -22 3 -26 8 -4 4 -11 7 -14 8 -4 0 -34 4 -67 9
-51 7 -3068 14 -3210 8z"/>
</g>
</svg>
